<svg width="10" height="16" viewBox="0 0 10 16" fill="none" xmlns="http://www.w3.org/2000/svg">
<path d="M3.20327 8.00047L9.55119 2.71088C9.80456 2.49806 9.96327 2.1935 9.99257 1.8639C10.0219 1.53431 9.91935 1.20653 9.70749 0.952356C9.49562 0.698181 9.19166 0.538321 8.86218 0.507783C8.53269 0.477245 8.20454 0.578518 7.94956 0.789424L0.449249 7.03972C0.308613 7.15721 0.195487 7.30415 0.11786 7.47016C0.0402338 7.63617 0 7.8172 0 8.00046C0 8.18372 0.0402338 8.36474 0.11786 8.53075C0.195487 8.69676 0.308613 8.8437 0.449249 8.96119L7.94956 15.2115C8.20442 15.4234 8.53298 15.5255 8.86306 15.4953C9.19314 15.4651 9.49774 15.3052 9.70997 15.0506C9.92219 14.796 10.0247 14.4675 9.9949 14.1374C9.96513 13.8073 9.80554 13.5025 9.55119 13.29L3.20327 8.00047Z" fill="#91989A"/>
</svg>
