<svg width="10" height="16" viewBox="0 0 10 16" fill="none" xmlns="http://www.w3.org/2000/svg">
<path d="M6.79673 7.99953L0.448814 13.2891C0.195439 13.5019 0.0367252 13.8065 0.0074302 14.1361C-0.0218648 14.4657 0.0806456 14.7935 0.292512 15.0476C0.504379 15.3018 0.808336 15.4617 1.13782 15.4922C1.46731 15.5228 1.79546 15.4215 2.05044 15.2106L9.55075 8.96028C9.69139 8.84279 9.80451 8.69585 9.88214 8.52984C9.95977 8.36383 10 8.1828 10 7.99954C10 7.81628 9.95977 7.63526 9.88214 7.46925C9.80451 7.30324 9.69139 7.1563 9.55075 7.0388L2.05044 0.788533C1.79558 0.576616 1.46702 0.474527 1.13694 0.504693C0.806865 0.53486 0.502259 0.694814 0.290036 0.949418C0.0778125 1.20402 -0.0246694 1.53246 0.00510144 1.86257C0.0348723 2.19269 0.194463 2.49749 0.448815 2.71001L6.79673 7.99953Z" fill="#91989A"/>
</svg>
