<svg width="50" height="50" viewBox="0 0 50 50" fill="none" xmlns="http://www.w3.org/2000/svg">
<g clip-path="url(#clip0_176_2)">
<path d="M44.5156 10.2305L42.0996 6.3418C41.5735 5.49489 40.8399 4.79623 39.9684 4.31194C39.0969 3.82764 38.1162 3.57373 37.1191 3.57422H33.084C32.9875 3.57452 32.8915 3.56103 32.7988 3.53418C32.6301 3.48491 32.4768 3.39325 32.3536 3.26795C32.2303 3.14264 32.1412 2.98786 32.0947 2.81836C32.0768 2.75296 32.0656 2.68587 32.0615 2.61817L32.0312 2.40235L31.918 1.70703L31.8125 1.06445C31.5877 -0.307519 30.8824 -1.55486 29.8226 -2.45471C28.7628 -3.35455 27.4176 -3.84827 26.0273 -3.84766H8.49609C6.94209 -3.84766 5.45174 -3.23033 4.35289 -2.13148C3.25404 -1.03264 2.63672 0.457717 2.63672 2.01172V15.6934C2.56577 15.6789 2.4925 15.6804 2.42221 15.6978C2.35192 15.7151 2.28636 15.7479 2.23028 15.7937C2.1742 15.8395 2.12901 15.8972 2.09796 15.9626C2.06692 16.028 2.0508 16.0995 2.05078 16.1719V23.3008C2.05083 23.4303 2.10229 23.5544 2.19385 23.646C2.28541 23.7376 2.40958 23.789 2.53906 23.7891C2.57617 23.7894 2.61328 23.7851 2.64941 23.7764C2.74547 25.2617 3.40321 26.6549 4.4891 27.673C5.57498 28.691 7.00761 29.2576 8.49609 29.2578H9.48828C9.58636 30.4813 10.1417 31.623 11.0436 32.4556C11.9456 33.2881 13.128 33.7503 14.3555 33.7503C15.5829 33.7503 16.7653 33.288 17.6673 32.4555C18.5692 31.623 19.1245 30.4813 19.2227 29.2578H30.9727C31.0704 30.4696 31.6167 31.6012 32.5047 32.4316C33.3926 33.2619 34.5584 33.7312 35.7739 33.7476C36.9895 33.7639 38.1675 33.3262 39.0775 32.5201C39.9875 31.714 40.564 30.5974 40.6943 29.3887L45.8135 29.5059C46.3292 29.5177 46.8287 29.3251 47.2029 28.9699C47.5771 28.6148 47.7955 28.126 47.8105 27.6104L47.9492 22.9492C48.0781 18.4645 46.8839 14.041 44.5156 10.2305ZM42.0625 16.5078L36.5039 16.2764C36.0453 16.2575 35.608 16.0778 35.2687 15.7687C34.9294 15.4596 34.7098 15.0408 34.6484 14.5859L33.7783 8.11914C33.7251 7.72365 33.8007 7.32154 33.994 6.97242C34.1873 6.6233 34.4879 6.34576 34.8514 6.18096C35.0926 6.0717 35.3543 6.01533 35.6191 6.01563H36.3027C36.851 6.01538 37.3934 6.12796 37.8962 6.34636C38.3991 6.56477 38.8516 6.88433 39.2256 7.28516L39.8115 7.91309C41.7014 9.93994 42.8927 12.5186 43.2109 15.2715C43.2159 15.3143 43.2186 15.3573 43.2187 15.4004C43.2187 15.5499 43.1883 15.6979 43.1295 15.8354C43.0708 15.973 42.9848 16.0972 42.8768 16.2006C42.7687 16.304 42.6409 16.3845 42.501 16.4373C42.3611 16.4901 42.2119 16.5141 42.0625 16.5078Z" fill="#32C97C"/>
</g>
<defs>
<clipPath id="clip0_176_2">
<rect width="50" height="50" fill="white"/>
</clipPath>
</defs>
</svg>
