<svg width="40" height="40" viewBox="0 0 40 40" fill="none" xmlns="http://www.w3.org/2000/svg">
<g clip-path="url(#clip0_305_20)">
<path d="M25.1785 31.3783C24.5971 31.3783 24.0927 30.9462 24.0173 30.3544C23.9358 29.7123 24.3899 29.1258 25.0317 29.044C28.7347 28.5722 32.0507 27.5688 34.3688 26.2181C36.4889 24.983 37.6562 23.531 37.6562 22.1297C37.6562 20.5852 36.2902 19.3214 35.144 18.5329C34.6108 18.166 34.4759 17.4367 34.8428 16.9032C35.2096 16.3701 35.9393 16.2352 36.4724 16.602C38.7801 18.1895 39.9999 20.1009 39.9999 22.13C39.9999 24.4328 38.4609 26.5468 35.5489 28.2432C32.9278 29.7703 29.3936 30.8513 25.328 31.3691C25.2777 31.3752 25.2276 31.3783 25.1785 31.3783Z" fill="#32C97C"/>
<path d="M19.7143 29.6999L16.5893 26.5749C16.1316 26.1171 15.3897 26.1171 14.9319 26.5749C14.4745 27.0324 14.4745 27.7745 14.9319 28.232L15.845 29.1451C12.344 28.7834 9.1635 27.9683 6.70073 26.7839C3.93188 25.4525 2.34375 23.756 2.34375 22.13C2.34375 20.7509 3.48083 19.3175 5.54534 18.0938C6.10228 17.7639 6.286 17.0449 5.9561 16.4882C5.6259 15.9313 4.90691 15.7476 4.35027 16.0775C0.754698 18.2088 0 20.5452 0 22.13C0 24.7301 2.01904 27.1331 5.68511 28.8964C8.53056 30.2645 12.2113 31.1809 16.2213 31.5355L14.9319 32.8249C14.4745 33.2823 14.4745 34.0245 14.9319 34.4823C15.1608 34.7109 15.4608 34.8253 15.7608 34.8253C16.0605 34.8253 16.3604 34.7109 16.5893 34.4823L19.7143 31.3573C20.1718 30.8995 20.1718 30.1573 19.7143 29.6999Z" fill="#32C97C"/>
<path d="M12.2732 19.7829V19.5009C12.2732 18.5063 11.6644 18.3135 10.8481 18.3135C10.3433 18.3135 10.18 17.8682 10.18 17.423C10.18 16.9774 10.3433 16.5322 10.8481 16.5322C11.412 16.5322 12.0059 16.458 12.0059 15.2556C12.0059 14.3947 11.5161 14.1869 10.9073 14.1869C10.18 14.1869 9.80894 14.3651 9.80894 14.944C9.80894 15.4485 9.58616 15.79 8.72526 15.79C7.65654 15.79 7.52318 15.5672 7.52318 14.8546C7.52318 13.6971 8.35417 12.1978 10.9073 12.1978C12.7926 12.1978 14.2175 12.8804 14.2175 14.8845C14.2175 15.9679 13.8168 16.9774 13.0746 17.3189C13.9505 17.6454 14.5886 18.2985 14.5886 19.5009V19.7829C14.5886 22.2173 12.9114 23.1377 10.8331 23.1377C8.28001 23.1377 7.3004 21.5791 7.3004 20.3322C7.3004 19.6642 7.58238 19.4859 8.39873 19.4859C9.34874 19.4859 9.58616 19.6938 9.58616 20.258C9.58616 20.9557 10.2395 21.1189 10.9073 21.1189C11.9168 21.1189 12.2732 20.7478 12.2732 19.7829Z" fill="#32C97C"/>
<path d="M23.5989 19.5009V19.6346C23.5989 22.1877 22.0105 23.1377 19.9621 23.1377C17.9138 23.1377 16.3104 22.1877 16.3104 19.6346V15.7009C16.3104 13.1478 17.958 12.1978 20.0958 12.1978C22.6043 12.1978 23.5989 13.7563 23.5989 14.9883C23.5989 15.7009 23.2574 15.9233 22.5152 15.9233C21.8771 15.9233 21.3128 15.7601 21.3128 15.0774C21.3128 14.5134 20.7193 14.2165 20.0216 14.2165C19.1458 14.2165 18.6261 14.6767 18.6261 15.7009V17.0366C19.1012 16.5172 19.7692 16.3835 20.4818 16.3835C22.1737 16.3835 23.5989 17.1257 23.5989 19.5009ZM18.6261 19.7978C18.6261 20.822 19.1308 21.2673 19.9621 21.2673C20.7934 21.2673 21.2832 20.822 21.2832 19.7978V19.6642C21.2832 18.5805 20.7934 18.1648 19.9472 18.1648C19.1458 18.1648 18.6261 18.5509 18.6261 19.5305V19.7978Z" fill="#32C97C"/>
<path d="M25.3949 19.6346V15.7009C25.3949 13.1478 26.983 12.1978 29.0316 12.1978C31.08 12.1978 32.683 13.1478 32.683 15.7009V19.6346C32.683 22.1877 31.08 23.1377 29.0316 23.1377C26.983 23.1377 25.3949 22.1877 25.3949 19.6346ZM30.3674 15.7009C30.3674 14.6767 29.8629 14.2165 29.0316 14.2165C28.2003 14.2165 27.7105 14.6767 27.7105 15.7009V19.6346C27.7105 20.6587 28.2003 21.1189 29.0316 21.1189C29.8629 21.1189 30.3674 20.6587 30.3674 19.6346V15.7009Z" fill="#32C97C"/>
<path d="M35.4961 12.1875C33.5574 12.1875 31.9805 10.6103 31.9805 8.67187C31.9805 6.7334 33.5574 5.15625 35.4961 5.15625C37.4346 5.15625 39.0118 6.7334 39.0118 8.67187C39.0118 10.6103 37.4346 12.1875 35.4961 12.1875ZM35.4961 7.5C34.8498 7.5 34.3243 8.02581 34.3243 8.67187C34.3243 9.31823 34.8498 9.84374 35.4961 9.84374C36.1422 9.84374 36.668 9.31823 36.668 8.67187C36.668 8.02581 36.1422 7.5 35.4961 7.5Z" fill="#32C97C"/>
</g>
<defs>
<clipPath id="clip0_305_20">
<rect width="40" height="40" fill="white"/>
</clipPath>
</defs>
</svg>
