<svg width="22" height="22" viewBox="0 0 22 22" fill="none" xmlns="http://www.w3.org/2000/svg">
<path d="M11 0.5C5.225 0.5 0.5 5.225 0.5 11C0.5 16.775 5.225 21.5 11 21.5C16.775 21.5 21.5 16.775 21.5 11C21.5 5.225 16.775 0.5 11 0.5ZM13.775 11.525L10.025 15.275C9.875 15.425 9.725 15.5 9.5 15.5C9.275 15.5 9.125 15.425 8.975 15.275C8.675 14.975 8.675 14.525 8.975 14.225L12.2 11L8.975 7.775C8.675 7.475 8.675 7.025 8.975 6.725C9.275 6.425 9.725 6.425 10.025 6.725L13.775 10.475C14.075 10.775 14.075 11.225 13.775 11.525Z" fill="#32C97C"/>
</svg>
