<svg width="65" height="65" viewBox="0 0 65 65" fill="none" xmlns="http://www.w3.org/2000/svg">
<g clip-path="url(#clip0_349_18)">
<path d="M23.5927 41.3798L19.6152 45.3573L26.7747 52.5168C27.214 52.9561 27.9263 52.9561 28.3657 52.5168L38.7085 42.174L22.7986 26.2641L12.4558 36.6069C12.0164 37.0462 12.0165 37.7586 12.4558 38.1978L14.8423 40.5843L20.4143 35.0123C20.8536 34.573 21.566 34.573 22.0053 35.0123C22.4445 35.4516 22.4446 36.164 22.0053 36.6033L16.4333 42.1753L18.0242 43.7663L22.0017 39.7888C22.4411 39.3495 23.1534 39.3496 23.5927 39.7888C24.032 40.2281 24.0321 40.9405 23.5927 41.3798Z" fill="white"/>
<path d="M24.3896 24.6729L40.2995 40.5828L41.8961 38.9862C43.6535 37.2288 43.6535 34.3796 41.8961 32.6222L39.5096 30.2357L45.0738 24.6716C46.3919 23.3534 46.3918 21.2166 45.0738 19.8986C43.7558 18.5806 41.6189 18.5805 40.3008 19.8986L34.7366 25.4628L32.3501 23.0763C30.5927 21.3189 27.7436 21.3189 25.9862 23.0763L24.3896 24.6729Z" fill="white"/>
</g>
<defs>
<clipPath id="clip0_349_18">
<rect width="45" height="45" fill="white" transform="translate(32.3447 64.4475) rotate(-135)"/>
</clipPath>
</defs>
</svg>
