<svg width="32" height="32" viewBox="0 0 32 32" fill="none" xmlns="http://www.w3.org/2000/svg">
<path d="M16 4C13.6266 4 11.3066 4.70379 9.33316 6.02236C7.35977 7.34094 5.8217 9.21509 4.91345 11.4078C4.0052 13.6005 3.76756 16.0133 4.23058 18.3411C4.6936 20.6689 5.83649 22.8071 7.51472 24.4853C9.19295 26.1635 11.3312 27.3064 13.6589 27.7694C15.9867 28.2324 18.3995 27.9948 20.5922 27.0866C22.7849 26.1783 24.6591 24.6402 25.9776 22.6668C27.2962 20.6935 28 18.3734 28 16C27.9963 12.8185 26.7308 9.76844 24.4812 7.51881C22.2316 5.26918 19.1815 4.00371 16 4ZM21.207 13.707L14.392 20.523L10.7 15.6C10.6212 15.4949 10.5639 15.3754 10.5313 15.2482C10.4987 15.121 10.4915 14.9886 10.5101 14.8586C10.5286 14.7286 10.5726 14.6035 10.6395 14.4905C10.7064 14.3775 10.7949 14.2788 10.9 14.2C11.0051 14.1212 11.1246 14.0639 11.2518 14.0313C11.379 13.9987 11.5114 13.9915 11.6414 14.0101C11.7714 14.0286 11.8965 14.0726 12.0095 14.1395C12.1225 14.2064 12.2212 14.2949 12.3 14.4L14.609 17.478L19.793 12.293C19.9816 12.1108 20.2342 12.01 20.4964 12.0123C20.7586 12.0146 21.0094 12.1198 21.1948 12.3052C21.3802 12.4906 21.4854 12.7414 21.4877 13.0036C21.49 13.2658 21.3892 13.5184 21.207 13.707Z" fill="#88D1FF"/>
</svg>
